<svg xmlns="http://www.w3.org/2000/svg" width="551" height="147" viewBox="0 0 551 147">
  <g id="trading-calculator-groen-diap" transform="translate(-86.36 -70.979)">
    <path id="Path_8" data-name="Path 8" d="M0,0H390V43H0Z" transform="translate(247.36 152.979)" fill="#23a475"/>
    <path id="Path_7" data-name="Path 7" d="M68.5,0C106.331,0,137,32.907,137,73.5S106.331,147,68.5,147,0,114.093,0,73.5,30.668,0,68.5,0Z" transform="translate(86.36 70.979)" fill="#23a475"/>
    <path id="Path_9" data-name="Path 9" d="M69,0c38.108,0,69,32.907,69,73.5S107.108,147,69,147,0,114.093,0,73.5,30.892,0,69,0Z" transform="translate(95.36 70.979)" fill="#fff"/>
    <path id="Path_3" data-name="Path 3" d="M56.853,0c31.4,0,56.853,27.215,56.853,60.786s-25.454,60.786-56.853,60.786S0,94.357,0,60.786,25.454,0,56.853,0Z" transform="translate(107.454 83.872)" fill="#23a475"/>
    <g id="Group_1" data-name="Group 1" transform="translate(128.551 100.23)">
      <rect id="Rectangle_1" data-name="Rectangle 1" width="3.754" height="7.509" transform="translate(29.848)" fill="#99ddc4"/>
      <rect id="Rectangle_2" data-name="Rectangle 2" width="3.754" height="7.509" transform="translate(29.848 81.347)" fill="#99ddc4"/>
      <rect id="Rectangle_3" data-name="Rectangle 3" width="3.754" height="7.509" transform="translate(37.357)" fill="#99ddc4"/>
      <rect id="Rectangle_4" data-name="Rectangle 4" width="3.754" height="7.509" transform="translate(37.357 81.347)" fill="#99ddc4"/>
      <path id="Path_1" data-name="Path 1" d="M37.285,92.339H21.376V30.548H1V17.307H57.66V30.548H37.285Z" transform="translate(4.425 -10.157)" fill="#99ddc4"/>
      <path id="Path_2" data-name="Path 2" d="M26.446,9.224c-4.5,0-9.8,1.275-12.267,4.409S9,21.136,9,26.737c0,11.655,4.456,17.555,13.889,17.555,3.958,0,12.309-.7,17.937-2.532,0,0,3.119,1.963,3.183,1.989s-3.183,7.307-3.183,7.307a42.694,42.694,0,0,1-15.5,2.681q-12.3,0-18.813-6.918T0,26.958A30.448,30.448,0,0,1,3.2,12.674a22.129,22.129,0,0,1,9.195-9.4A28.889,28.889,0,0,1,26.446,0a40.369,40.369,0,0,1,16.5,3.683l-3.855,9.01a66.721,66.721,0,0,0-6.361-2.431A20.313,20.313,0,0,0,26.446,9.224Z" transform="matrix(0.848, -0.53, 0.53, 0.848, 0, 38.291)" fill="#99ddc4"/>
      <path id="Path_1-2" data-name="Path 1" d="M37.285,92.339H21.376V30.548H1V17.307H57.66V30.548H37.285Z" transform="translate(8.179 -10.157)" fill="#fff"/>
      <path id="Path_2-2" data-name="Path 2" d="M26.446,9.224c-4.5,0-9.8,1.275-12.267,4.409S9,21.136,9,26.737c0,11.655,4.456,17.555,13.889,17.555,3.958,0,12.309-.7,17.937-2.532v9.3a42.694,42.694,0,0,1-15.5,2.681q-12.3,0-18.813-6.918T0,26.958A30.448,30.448,0,0,1,3.2,12.674a22.129,22.129,0,0,1,9.195-9.4A28.889,28.889,0,0,1,26.446,0a40.369,40.369,0,0,1,16.5,3.683l-3.855,9.01a66.721,66.721,0,0,0-6.361-2.431A20.313,20.313,0,0,0,26.446,9.224Z" transform="matrix(0.848, -0.53, 0.53, 0.848, 3.755, 38.291)" fill="#fff"/>
      <rect id="Rectangle_5" data-name="Rectangle 5" width="3.754" height="7.509" transform="translate(32.351)" fill="#fff"/>
      <rect id="Rectangle_6" data-name="Rectangle 6" width="3.754" height="7.509" transform="translate(32.351 81.347)" fill="#fff"/>
      <rect id="Rectangle_7" data-name="Rectangle 7" width="3.754" height="7.509" transform="translate(39.443)" fill="#fff"/>
      <rect id="Rectangle_8" data-name="Rectangle 8" width="3.754" height="7.509" transform="translate(39.443 81.347)" fill="#fff"/>
    </g>
    <path id="Path_5" data-name="Path 5" d="M15.246.569H8.921V-24H.821V-29.26H23.346V-24h-8.1ZM34.261-16.019H36.3a7.806,7.806,0,0,0,4.427-1,3.569,3.569,0,0,0,1.428-3.142A3.264,3.264,0,0,0,40.7-23.18a8.852,8.852,0,0,0-4.519-.9H34.261Zm0,5.142V.569H27.937V-29.26h8.692q6.08,0,9,2.214t2.918,6.723A7.914,7.914,0,0,1,47.1-15.641a9.585,9.585,0,0,1-4.1,3.213q6.733,10.059,8.773,13H44.749L37.628-10.877ZM73.782.569l-2.163-7.1H60.745L58.582.569H51.767L62.3-29.383h7.733L80.6.569ZM70.11-11.836q-3-9.651-3.377-10.916t-.541-2q-.673,2.612-3.856,12.915Zm38.99-2.8q0,7.366-4.193,11.283T92.8.569H84.351V-29.26h9.365q7.3,0,11.344,3.856T109.1-14.631Zm-6.57.163q0-9.61-8.488-9.61H90.676V-4.654H93.39Q102.53-4.654,102.53-14.468ZM115.282.569V-29.26h6.325V.569Zm40.3,0H147.54L134.563-22h-.184q.388,5.978.388,8.528V.569h-5.652V-29.26h7.978L150.049-6.919h.143q-.306-5.815-.306-8.222V-29.26h5.692ZM174.41-16.182h11.834V-.717A33.363,33.363,0,0,1,180.827.6a35.284,35.284,0,0,1-5.193.377q-6.753,0-10.314-3.968t-3.56-11.4q0-7.223,4.132-11.263t11.456-4.04a22.166,22.166,0,0,1,8.855,1.836l-2.1,5.06a15.009,15.009,0,0,0-6.794-1.632,8.391,8.391,0,0,0-6.57,2.754,10.685,10.685,0,0,0-2.469,7.406q0,4.856,1.989,7.417a6.882,6.882,0,0,0,5.784,2.561,20.46,20.46,0,0,0,4.019-.408v-6.223H174.41Zm38.381-3.12a7.136,7.136,0,0,0-5.681,2.4,9.665,9.665,0,0,0-2.083,6.561,9.858,9.858,0,0,0,2.008,6.621,7.138,7.138,0,0,0,5.725,2.336,19.548,19.548,0,0,0,5.21-.821V.016a16.045,16.045,0,0,1-5.6.851,9.471,9.471,0,0,1-7.442-2.926q-2.62-2.926-2.62-8.316a13.124,13.124,0,0,1,1.262-5.912,9.057,9.057,0,0,1,3.643-3.911,11.026,11.026,0,0,1,5.606-1.373,13.526,13.526,0,0,1,6,1.254l-1.075,2.18A11.568,11.568,0,0,0,212.791-19.3ZM236.454.569l-2.717-6.942h-8.748L222.3.569h-2.568l8.629-21.916H230.5L239.081.569Zm-3.508-9.226-2.538-6.763q-.493-1.284-1.015-3.15a28.287,28.287,0,0,1-.941,3.15l-2.568,6.763ZM242.082.569V-21.258h2.538V-1.73h9.629v2.3ZM267.3-19.3a7.136,7.136,0,0,0-5.681,2.4,9.665,9.665,0,0,0-2.083,6.561,9.858,9.858,0,0,0,2.008,6.621,7.138,7.138,0,0,0,5.725,2.336,19.548,19.548,0,0,0,5.21-.821V.016a16.045,16.045,0,0,1-5.6.851,9.471,9.471,0,0,1-7.442-2.926q-2.62-2.926-2.62-8.316a13.124,13.124,0,0,1,1.262-5.912,9.057,9.057,0,0,1,3.643-3.911,11.026,11.026,0,0,1,5.606-1.373,13.526,13.526,0,0,1,6,1.254l-1.075,2.18A11.568,11.568,0,0,0,267.3-19.3Zm26.424-1.956V-7.135a7.693,7.693,0,0,1-2.254,5.867,8.646,8.646,0,0,1-6.2,2.135,8.264,8.264,0,0,1-6.1-2.15,7.973,7.973,0,0,1-2.157-5.912V-21.258h2.538V-7.015a5.61,5.61,0,0,0,1.493,4.2,6.024,6.024,0,0,0,4.389,1.463,5.808,5.808,0,0,0,4.255-1.471,5.657,5.657,0,0,0,1.493-4.217V-21.258ZM299.5.569V-21.258h2.538V-1.73h9.629v2.3Zm29.589,0-2.717-6.942h-8.748L314.936.569h-2.568L321-21.347h2.135L331.716.569Zm-3.508-9.226-2.538-6.763q-.493-1.284-1.015-3.15a28.289,28.289,0,0,1-.94,3.15l-2.568,6.763ZM341.435.569H338.9V-19h-6.912v-2.254h16.362V-19h-6.912Zm29.142-10.943q0,5.24-2.65,8.241a9.316,9.316,0,0,1-7.368,3,9.434,9.434,0,0,1-7.442-2.948Q350.5-5.03,350.5-10.4q0-5.33,2.628-8.263t7.465-2.934a9.3,9.3,0,0,1,7.345,2.986Q370.577-15.629,370.577-10.374Zm-17.392,0q0,4.434,1.889,6.726a6.7,6.7,0,0,0,5.486,2.292,6.636,6.636,0,0,0,5.479-2.284q1.851-2.284,1.851-6.733,0-4.4-1.844-6.681a6.607,6.607,0,0,0-5.457-2.277,6.736,6.736,0,0,0-5.516,2.292Q353.185-14.748,353.185-10.374Zm24.8,1.866V.569h-2.538V-21.258h5.987q4.016,0,5.934,1.538a5.575,5.575,0,0,1,1.918,4.628q0,4.329-4.389,5.852L390.821.569h-3l-5.285-9.077Zm0-2.18h3.478a6.007,6.007,0,0,0,3.941-1.067,3.972,3.972,0,0,0,1.254-3.2,3.644,3.644,0,0,0-1.276-3.12,6.915,6.915,0,0,0-4.1-.955h-3.3Z" transform="translate(246.539 136.915)" fill="#fff"/>
    <path id="Path_6" data-name="Path 6" d="M2.159-15.708H6.539A8.263,8.263,0,0,1,11-14.786a3.257,3.257,0,0,1,1.378,2.916A3.369,3.369,0,0,1,11.612-9.6,3.7,3.7,0,0,1,9.37-8.434v.106q3.531.6,3.531,3.711A3.986,3.986,0,0,1,11.5-1.372,5.98,5.98,0,0,1,7.567-.206H2.159Zm1.8,6.638H6.931a4.833,4.833,0,0,0,2.746-.6,2.313,2.313,0,0,0,.838-2.02,2.044,2.044,0,0,0-.933-1.882,5.831,5.831,0,0,0-2.969-.578H3.962Zm0,1.527v5.8H7.2a4.607,4.607,0,0,0,2.826-.726,2.682,2.682,0,0,0,.949-2.275A2.409,2.409,0,0,0,10-6.865a5.186,5.186,0,0,0-2.953-.679ZM27.044-.206H18.4v-15.5h8.642v1.6H20.2v4.994h6.426v1.591H20.2v5.7h6.839ZM39.289-14.319a5.069,5.069,0,0,0-4.035,1.7,6.865,6.865,0,0,0-1.479,4.66,7,7,0,0,0,1.426,4.7,5.07,5.07,0,0,0,4.067,1.659,13.885,13.885,0,0,0,3.7-.583V-.6a11.4,11.4,0,0,1-3.976.6,6.727,6.727,0,0,1-5.286-2.078,8.559,8.559,0,0,1-1.861-5.906,9.322,9.322,0,0,1,.9-4.2,6.433,6.433,0,0,1,2.587-2.778,7.831,7.831,0,0,1,3.982-.976,9.607,9.607,0,0,1,4.263.891l-.763,1.548A8.216,8.216,0,0,0,39.289-14.319ZM58.268-.206l-1.93-4.931H50.124L48.216-.206H46.392l6.129-15.566h1.516l6.1,15.566ZM55.776-6.759l-1.8-4.8q-.35-.912-.721-2.237a20.091,20.091,0,0,1-.668,2.237l-1.824,4.8Zm20.368-8.95V-5.677a5.464,5.464,0,0,1-1.6,4.167,6.141,6.141,0,0,1-4.4,1.516A5.87,5.87,0,0,1,65.81-1.52a5.663,5.663,0,0,1-1.532-4.2v-9.989h1.8V-5.592a3.985,3.985,0,0,0,1.06,2.98,4.279,4.279,0,0,0,3.118,1.039,4.125,4.125,0,0,0,3.022-1.044,4.018,4.018,0,0,0,1.06-3V-15.708ZM91.167-4.33a3.8,3.8,0,0,1-1.485,3.192A6.437,6.437,0,0,1,85.653.007,10.092,10.092,0,0,1,81.412-.7V-2.443a11.167,11.167,0,0,0,2.078.636,10.935,10.935,0,0,0,2.227.233,4.493,4.493,0,0,0,2.715-.684,2.244,2.244,0,0,0,.912-1.9,2.443,2.443,0,0,0-.323-1.32,3,3,0,0,0-1.082-.949,15.131,15.131,0,0,0-2.306-.986,7.362,7.362,0,0,1-3.091-1.834,4.05,4.05,0,0,1-.928-2.768,3.442,3.442,0,0,1,1.347-2.852,5.6,5.6,0,0,1,3.563-1.06,10.5,10.5,0,0,1,4.252.848l-.562,1.569a9.609,9.609,0,0,0-3.733-.806,3.612,3.612,0,0,0-2.237.615A2.027,2.027,0,0,0,83.437-12a2.616,2.616,0,0,0,.3,1.32,2.8,2.8,0,0,0,1,.944,12.45,12.45,0,0,0,2.158.949A8.543,8.543,0,0,1,90.25-6.918,3.671,3.671,0,0,1,91.167-4.33ZM105.152-.206H96.509v-15.5h8.642v1.6H98.312v4.994h6.426v1.591H98.312v5.7h6.839ZM127.32-4.33a3.8,3.8,0,0,1-1.485,3.192A6.437,6.437,0,0,1,121.806.007a10.092,10.092,0,0,1-4.242-.71V-2.443a11.167,11.167,0,0,0,2.078.636,10.935,10.935,0,0,0,2.227.233,4.493,4.493,0,0,0,2.715-.684,2.244,2.244,0,0,0,.912-1.9,2.443,2.443,0,0,0-.323-1.32,3,3,0,0,0-1.082-.949,15.131,15.131,0,0,0-2.306-.986,7.362,7.362,0,0,1-3.091-1.834,4.05,4.05,0,0,1-.928-2.768,3.442,3.442,0,0,1,1.347-2.852,5.6,5.6,0,0,1,3.563-1.06,10.5,10.5,0,0,1,4.252.848l-.562,1.569a9.609,9.609,0,0,0-3.733-.806,3.612,3.612,0,0,0-2.237.615A2.027,2.027,0,0,0,119.59-12a2.616,2.616,0,0,0,.3,1.32,2.8,2.8,0,0,0,1,.944,12.45,12.45,0,0,0,2.158.949A8.543,8.543,0,0,1,126.4-6.918,3.671,3.671,0,0,1,127.32-4.33Zm5.342,4.125v-15.5h1.8v15.5Zm17.621,0H139.627v-1.41l8.229-12.47h-7.974v-1.622H150.05v1.41L141.822-1.839h8.462Zm13.815,0h-8.642v-15.5H164.1v1.6h-6.839v4.994h6.426v1.591h-6.426v5.7H164.1Zm25.795-7.9a7.827,7.827,0,0,1-2.084,5.869,8.244,8.244,0,0,1-6,2.031h-4.295v-15.5h4.75a7.6,7.6,0,0,1,5.62,2A7.568,7.568,0,0,1,189.893-8.105Zm-1.909.064a6.241,6.241,0,0,0-1.522-4.57,6.1,6.1,0,0,0-4.523-1.538h-2.619V-1.764h2.195a6.674,6.674,0,0,0,4.846-1.585A6.277,6.277,0,0,0,187.984-8.042Zm20.993.064A8.535,8.535,0,0,1,207.1-2.125,6.617,6.617,0,0,1,201.862.007a6.7,6.7,0,0,1-5.286-2.094A8.6,8.6,0,0,1,194.715-8a8.5,8.5,0,0,1,1.866-5.869,6.748,6.748,0,0,1,5.3-2.084,6.6,6.6,0,0,1,5.217,2.121A8.526,8.526,0,0,1,208.977-7.978Zm-12.353,0A7.358,7.358,0,0,0,197.965-3.2a4.759,4.759,0,0,0,3.9,1.628A4.714,4.714,0,0,0,205.754-3.2a7.46,7.46,0,0,0,1.315-4.782,7.4,7.4,0,0,0-1.31-4.745,4.693,4.693,0,0,0-3.876-1.617,4.784,4.784,0,0,0-3.918,1.628A7.282,7.282,0,0,0,196.624-7.978ZM223.248-.206h-8.642v-15.5h8.642v1.6h-6.839v4.994h6.426v1.591h-6.426v5.7h6.839ZM237.6-4.33a3.8,3.8,0,0,1-1.485,3.192A6.437,6.437,0,0,1,232.089.007a10.092,10.092,0,0,1-4.242-.71V-2.443a11.167,11.167,0,0,0,2.078.636,10.935,10.935,0,0,0,2.227.233,4.493,4.493,0,0,0,2.715-.684,2.244,2.244,0,0,0,.912-1.9,2.443,2.443,0,0,0-.323-1.32,3,3,0,0,0-1.082-.949,15.131,15.131,0,0,0-2.306-.986,7.362,7.362,0,0,1-3.091-1.834,4.05,4.05,0,0,1-.928-2.768,3.442,3.442,0,0,1,1.347-2.852,5.6,5.6,0,0,1,3.563-1.06,10.5,10.5,0,0,1,4.252.848l-.562,1.569a9.609,9.609,0,0,0-3.733-.806,3.612,3.612,0,0,0-2.237.615A2.027,2.027,0,0,0,229.873-12a2.616,2.616,0,0,0,.3,1.32,2.8,2.8,0,0,0,1,.944,12.45,12.45,0,0,0,2.158.949,8.543,8.543,0,0,1,3.356,1.866A3.671,3.671,0,0,1,237.6-4.33ZM257.619-.206l-5.26-13.742h-.085q.148,1.633.148,3.881V-.206h-1.665v-15.5h2.715l4.91,12.788h.085l4.952-12.788h2.693v15.5h-1.8v-9.989q0-1.718.148-3.733h-.085l-5.3,13.721Zm24.662,0-1.93-4.931h-6.214L272.229-.206H270.4l6.129-15.566h1.516l6.1,15.566Zm-2.492-6.553-1.8-4.8q-.35-.912-.721-2.237a20.1,20.1,0,0,1-.668,2.237l-1.824,4.8ZM293.222-.206h-1.8v-13.9h-4.91v-1.6h11.622v1.6h-4.91Zm14.186,0h-1.8v-13.9H300.7v-1.6h11.622v1.6h-4.91Zm18.056,0h-8.642v-15.5h8.642v1.6h-6.839v4.994h6.426v1.591h-6.426v5.7h6.839Zm7.41-6.447V-.206h-1.8v-15.5h4.252a6.691,6.691,0,0,1,4.215,1.092,3.96,3.96,0,0,1,1.363,3.287,4.117,4.117,0,0,1-3.118,4.157l4.21,6.967h-2.131l-3.754-6.447Zm0-1.548h2.471a4.267,4.267,0,0,0,2.8-.758,2.821,2.821,0,0,0,.891-2.275,2.588,2.588,0,0,0-.907-2.216,4.912,4.912,0,0,0-2.911-.679h-2.343Z" transform="translate(270.284 183.083)" fill="#fff"/>
  </g>
</svg>
